# xmcd
#
# Track frame offsets:
#	150
#	54304
#	103328
#	132939
#
# Disc length: 2359 seconds
#
# Revision: 0
# Processed by: cddbd v1.5.2PL0 Copyright (c) Steve Scherf et al.
# Submitted via: audiograbber 1.83.01
#
DISCID=32093504
DTITLE=Grateful Dead - 76-06-09 Boston Music Hall, Boston MA
DYEAR=1900
DGENRE=
TTITLE0=Dancing In The Street
TTITLE1=Wharf Rat
TTITLE2=Around and Around
TTITLE3=Franklin's Tower
EXTD=
EXTT0=
EXTT1=
EXTT2=
EXTT3=
PLAYORDER=
